<svg width="372" height="372" viewBox="0 0 372 372" fill="none" xmlns="http://www.w3.org/2000/svg">
<g clip-path="url(#clip0_1_23)">
<path d="M271.105 155.657C289.831 218.289 254.238 284.243 191.606 302.97C128.974 321.696 63.02 286.104 44.2936 223.471C25.5672 160.839 61.1598 94.8852 123.792 76.1588C186.424 57.4324 252.378 93.025 271.105 155.657Z" fill="#FFB703"/>
<path d="M37.7608 291.094C35.0677 287.591 35.7239 282.569 39.2265 279.876L298.341 80.6442C301.844 77.951 306.866 78.6072 309.559 82.1098L331.996 111.291C334.689 114.793 334.033 119.816 330.531 122.509L71.4161 321.741C67.9135 324.434 62.8909 323.777 60.1977 320.275L37.7608 291.094Z" fill="#183153"/>
<path d="M345.825 58.9512C349.718 55.4013 355.813 55.9389 359.025 60.1152L365.961 69.1365C369.172 73.3128 368.126 79.342 363.695 82.1919L324.065 107.681C320.131 110.212 314.914 109.306 312.062 105.598L309.94 102.838C307.088 99.129 307.554 93.8541 311.01 90.7018L345.825 58.9512Z" fill="#183153"/>
<path d="M345.825 58.9512C349.718 55.4013 355.813 55.9389 359.025 60.1152L365.961 69.1365C369.172 73.3128 368.126 79.342 363.695 82.1919L324.065 107.681C320.131 110.212 314.914 109.306 312.062 105.598L309.94 102.838C307.088 99.129 307.554 93.8541 311.01 90.7018L345.825 58.9512Z" fill="#091220"/>
<path fill-rule="evenodd" clip-rule="evenodd" d="M359.025 60.1152C355.813 55.9389 349.718 55.4013 345.825 58.9512L311.01 90.7018C307.554 93.8541 307.088 99.129 309.94 102.838L312.062 105.598C312.148 105.71 312.237 105.82 312.328 105.927L341.942 78.9198C345.834 75.3699 351.93 75.9075 355.141 80.0838L359.056 85.1755L363.695 82.1919C368.126 79.3421 369.172 73.3129 365.961 69.1366L359.025 60.1152Z" fill="#183153"/>
<path d="M6.06238 320.193C1.63163 323.043 0.585067 329.072 3.79621 333.248L10.7327 342.269C13.9438 346.446 20.0395 346.983 23.932 343.433L58.7471 311.683C62.2037 308.53 62.6689 303.256 59.8173 299.547L57.6952 296.787C54.8437 293.078 49.6263 292.173 45.6918 294.703L6.06238 320.193Z" fill="#183153"/>
<path d="M6.06231 320.193C1.63157 323.043 0.585006 329.072 3.79615 333.248L10.7326 342.269C13.9438 346.446 20.0395 346.983 23.9319 343.433L58.7471 311.683C62.2036 308.53 62.6688 303.256 59.8173 299.547L57.6951 296.787C54.8436 293.078 49.6263 292.173 45.6917 294.703L6.06231 320.193Z" fill="#091220"/>
<path fill-rule="evenodd" clip-rule="evenodd" d="M15.1501 314.348L20.257 320.989C23.4682 325.166 29.5639 325.703 33.4564 322.153L59.1691 298.704L59.8173 299.547C62.6689 303.256 62.2037 308.531 58.7471 311.683L23.932 343.433C20.0395 346.983 13.9438 346.446 10.7327 342.269L3.79621 333.248C0.585067 329.072 1.63163 323.043 6.06238 320.193L15.1501 314.348Z" fill="#183153"/>
</g>
<defs>
<clipPath id="clip0_1_23">
<rect width="372" height="372" fill="white"/>
</clipPath>
</defs>
</svg>
