<svg width="372" height="372" viewBox="0 0 372 372" fill="none" xmlns="http://www.w3.org/2000/svg">
<path d="M201 103C201 111.284 194.284 118 186 118C177.716 118 171 111.284 171 103C171 94.7157 177.716 88 186 88C194.284 88 201 94.7157 201 103Z" fill="#091220"/>
<path d="M329 247C329 228.09 325.301 209.364 318.115 191.894C310.928 174.423 300.395 158.548 287.116 145.177C273.837 131.805 258.073 121.198 240.724 113.961C223.374 106.725 204.779 103 186 103C167.221 103 148.626 106.725 131.276 113.961C113.927 121.198 98.1625 131.805 84.8837 145.177C71.6049 158.548 61.0716 174.423 53.8852 191.894C46.6988 209.364 43 228.09 43 247L186 247H329Z" fill="#183153"/>
<path fill-rule="evenodd" clip-rule="evenodd" d="M149.106 127.346C149.905 129.075 149.151 131.123 147.423 131.922C130.737 139.633 115.733 150.555 103.269 164.065C90.8039 177.574 81.1221 193.406 74.776 210.658C74.1187 212.445 72.1372 213.36 70.3502 212.703C68.5632 212.046 67.6475 210.064 68.3048 208.277C74.9635 190.176 85.1222 173.564 98.201 159.389C111.28 145.214 127.022 133.754 144.53 125.663C146.258 124.864 148.307 125.618 149.106 127.346Z" fill="#FFB703"/>
<path d="M15 252.333C15 249.388 17.4697 247 20.5161 247H351.484C354.53 247 357 249.388 357 252.333V253.667C357 256.612 354.53 259 351.484 259H20.5161C17.4697 259 15 256.612 15 253.667V252.333Z" fill="#091220"/>
<path d="M43 259H329V270.111C329 277.782 322.844 284 315.25 284H56.75C49.1561 284 43 277.782 43 270.111V259Z" fill="#183153"/>
</svg>
