<svg width="372" height="372" viewBox="0 0 372 372" fill="none" xmlns="http://www.w3.org/2000/svg">
<g clip-path="url(#clip0_1_2)">
<path d="M156.344 197.552L315.745 70.3233L326.347 83.6068L166.946 210.835L156.344 197.552Z" fill="#183153"/>
<path d="M5.16577 318.217L169.627 186.949L175.112 193.822C195.784 219.72 191.546 257.473 165.647 278.145L94.9742 334.554C69.0753 355.225 31.3225 350.988 10.6509 325.089L5.16577 318.217Z" fill="#183153"/>
<path d="M169.627 186.949C179.108 198.827 149.977 237.841 104.562 274.09C59.1474 310.338 14.6461 330.094 5.16573 318.217C-4.31464 306.339 24.8159 267.325 70.2307 231.077C115.645 194.828 160.147 175.072 169.627 186.949Z" fill="#FFB703"/>
<path d="M281.448 109.088C275.035 101.054 276.35 89.341 284.385 82.9278L336.253 41.5281C344.288 35.1149 356.001 36.4296 362.414 44.4645C368.827 52.4994 367.512 64.2119 359.477 70.6251L307.609 112.025C299.574 118.438 287.861 117.123 281.448 109.088Z" fill="#183153"/>
<path d="M281.448 109.088C275.035 101.054 276.35 89.341 284.385 82.9278L336.253 41.5281C344.288 35.1149 356.001 36.4296 362.414 44.4645C368.827 52.4994 367.512 64.2119 359.477 70.6251L307.609 112.025C299.574 118.438 287.861 117.123 281.448 109.088Z" fill="#091220"/>
<path fill-rule="evenodd" clip-rule="evenodd" d="M284.385 82.9278C276.35 89.341 275.035 101.054 281.448 109.088C287.861 117.123 299.574 118.438 307.609 112.025L311.623 108.821C310.823 108.114 310.074 107.328 309.385 106.465C302.972 98.4305 304.286 86.718 312.321 80.3048L360.175 42.1094C353.527 36.2363 343.425 35.8037 336.253 41.5281L284.385 82.9278Z" fill="#183153"/>
</g>
<defs>
<clipPath id="clip0_1_2">
<rect width="372" height="372" fill="white"/>
</clipPath>
</defs>
</svg>
