<svg width="372" height="372" viewBox="0 0 372 372" fill="none" xmlns="http://www.w3.org/2000/svg">
<path d="M84 344.8C84 341.597 86.513 339 89.6129 339H339.387C342.487 339 345 341.597 345 344.8V362.2C345 365.403 342.487 368 339.387 368H89.6129C86.513 368 84 365.403 84 362.2V344.8Z" fill="#FFB703"/>
<path fill-rule="evenodd" clip-rule="evenodd" d="M214.799 6C154.489 6 105.598 55.0034 105.598 115.452V145.565L81.7038 108.544C73.7625 96.2393 57.3732 92.7173 45.0972 100.677C32.8213 108.636 29.3073 125.063 37.2486 137.367L105.598 243.267V339H324V115.452C324 55.0034 275.109 6 214.799 6Z" fill="#183153"/>
<path fill-rule="evenodd" clip-rule="evenodd" d="M57.3113 97C57.8981 98.4079 58.3893 99.8772 58.7747 101.402L88 217L37.2054 137.749C29.3448 125.485 32.8231 109.111 44.9745 101.177C48.8113 98.6719 53.054 97.3078 57.3113 97Z" fill="#091220"/>
</svg>
