<svg width="372" height="372" viewBox="0 0 372 372" fill="none" xmlns="http://www.w3.org/2000/svg">
<path d="M285.011 279.87C280.587 271.904 283.458 261.859 291.425 257.434L333.599 234.011C341.566 229.587 351.611 232.458 356.035 240.425C360.46 248.391 357.588 258.436 349.622 262.86L307.447 286.284C299.481 290.708 289.436 287.837 285.011 279.87Z" fill="#FFB703"/>
<path d="M87.0351 279.87C91.4596 271.904 88.5882 261.859 80.6217 257.434L38.4471 234.011C30.4806 229.587 20.4357 232.458 16.0112 240.425C11.5867 248.391 14.4581 258.436 22.4246 262.86L64.5992 286.284C72.5658 290.708 82.6106 287.837 87.0351 279.87Z" fill="#FFB703"/>
<path d="M67 180H303V341C303 358.121 289.121 372 272 372H98C80.8792 372 67 358.121 67 341V180Z" fill="#183153"/>
<path d="M39 163.5C39 154.387 46.3873 147 55.5 147H314.5C323.613 147 331 154.387 331 163.5C331 172.613 323.613 180 314.5 180H55.5C46.3873 180 39 172.613 39 163.5Z" fill="#183153"/>
<path d="M39 163.5C39 154.387 46.3873 147 55.5 147H314.5C323.613 147 331 154.387 331 163.5C331 172.613 323.613 180 314.5 180H55.5C46.3873 180 39 172.613 39 163.5Z" fill="#091220"/>
<path fill-rule="evenodd" clip-rule="evenodd" d="M55.5 147C46.3873 147 39 154.387 39 163.5C39 172.613 46.3873 180 55.5 180H95.0074C95.0025 179.834 95 179.667 95 179.5C95 170.387 102.387 163 111.5 163H330.993C330.728 154.119 323.445 147 314.5 147H55.5Z" fill="#183153"/>
<path d="M107.015 55.4176C105.296 45.346 112.066 35.7875 122.138 34.0681L221.698 17.0713C231.769 15.3519 241.328 22.1226 243.047 32.1942C244.766 42.2657 237.996 51.8242 227.924 53.5436L128.365 70.5404C118.293 72.2598 108.735 65.4891 107.015 55.4176Z" fill="#FFB703"/>
<path fill-rule="evenodd" clip-rule="evenodd" d="M67.874 72.7516C57.8024 74.4711 51.0317 84.0295 52.7511 94.1011C53.3356 97.5249 54.8261 100.567 56.9347 103.024L53.857 103.55C44.8742 105.083 38.8355 113.608 40.369 122.591C41.9025 131.574 50.4277 137.613 59.4104 136.079L314.717 92.4931C323.699 90.9596 329.738 82.4345 328.205 73.4517C326.671 64.469 318.146 58.4302 309.163 59.9638L306.085 60.4892C307.259 57.4718 307.656 54.1072 307.072 50.6834C305.352 40.6119 295.794 33.8411 285.722 35.5605L67.874 72.7516Z" fill="#183153"/>
</svg>
